<?xml version="1.0" encoding="UTF-8" standalone="no"?>
<!-- Created with Inkscape (http://www.inkscape.org/) -->

<svg
   xmlns:dc="http://purl.org/dc/elements/1.1/"
   xmlns:cc="http://creativecommons.org/ns#"
   xmlns:rdf="http://www.w3.org/1999/02/22-rdf-syntax-ns#"
   xmlns:svg="http://www.w3.org/2000/svg"
   xmlns="http://www.w3.org/2000/svg"
   xmlns:xlink="http://www.w3.org/1999/xlink"
   xmlns:sodipodi="http://sodipodi.sourceforge.net/DTD/sodipodi-0.dtd"
   xmlns:inkscape="http://www.inkscape.org/namespaces/inkscape"
   width="344.52301"
   height="403.75677"
   id="svg2"
   version="1.1"
   inkscape:version="0.47 r22583"
   sodipodi:docname="beer1.svg">
  <defs
     id="defs4">
    <linearGradient
       id="linearGradient4229">
      <stop
         style="stop-color:#ff7f2a;stop-opacity:1;"
         offset="0"
         id="stop4231" />
      <stop
         style="stop-color:#813300;stop-opacity:0;"
         offset="1"
         id="stop4233" />
    </linearGradient>
    <linearGradient
       id="linearGradient4215">
      <stop
         style="stop-color:#ffffff;stop-opacity:1;"
         offset="0"
         id="stop4217" />
      <stop
         style="stop-color:#c5c5c5;stop-opacity:1;"
         offset="1"
         id="stop4219" />
    </linearGradient>
    <linearGradient
       id="linearGradient4207">
      <stop
         style="stop-color:#ef8900;stop-opacity:1;"
         offset="0"
         id="stop4209" />
      <stop
         style="stop-color:#5d2500;stop-opacity:1;"
         offset="1"
         id="stop4211" />
    </linearGradient>
    <linearGradient
       id="linearGradient4199">
      <stop
         style="stop-color:#ad5a00;stop-opacity:1;"
         offset="0"
         id="stop4201" />
      <stop
         style="stop-color:#2c1a00;stop-opacity:1;"
         offset="1"
         id="stop4203" />
    </linearGradient>
    <linearGradient
       id="linearGradient4105">
      <stop
         style="stop-color:#311400;stop-opacity:1;"
         offset="0"
         id="stop4107" />
      <stop
         id="stop4125"
         offset="0.50347221"
         style="stop-color:#ba5700;stop-opacity:1;" />
      <stop
         style="stop-color:#3a2100;stop-opacity:1;"
         offset="1"
         id="stop4109" />
    </linearGradient>
    <inkscape:perspective
       sodipodi:type="inkscape:persp3d"
       inkscape:vp_x="0 : 526.18109 : 1"
       inkscape:vp_y="0 : 1000 : 0"
       inkscape:vp_z="744.09448 : 526.18109 : 1"
       inkscape:persp3d-origin="372.04724 : 350.78739 : 1"
       id="perspective10" />
    <inkscape:perspective
       id="perspective4172"
       inkscape:persp3d-origin="0.5 : 0.33333333 : 1"
       inkscape:vp_z="1 : 0.5 : 1"
       inkscape:vp_y="0 : 1000 : 0"
       inkscape:vp_x="0 : 0.5 : 1"
       sodipodi:type="inkscape:persp3d" />
    <linearGradient
       inkscape:collect="always"
       xlink:href="#linearGradient4207"
       id="linearGradient4213"
       x1="121.86563"
       y1="121.22877"
       x2="122.01184"
       y2="349.41339"
       gradientUnits="userSpaceOnUse" />
    <radialGradient
       inkscape:collect="always"
       xlink:href="#linearGradient4215"
       id="radialGradient4221"
       cx="126.22826"
       cy="45.060482"
       fx="126.22826"
       fy="45.060482"
       r="117.83995"
       gradientTransform="matrix(1.7551442,6.3148065e-8,-1.0547796e-8,1.7657202,-95.32055,-16.222968)"
       gradientUnits="userSpaceOnUse" />
    <linearGradient
       inkscape:collect="always"
       xlink:href="#linearGradient4229"
       id="linearGradient4235"
       x1="113.13152"
       y1="186.80402"
       x2="160.42369"
       y2="117.63924"
       gradientUnits="userSpaceOnUse" />
  </defs>
  <sodipodi:namedview
     id="base"
     pagecolor="#ffffff"
     bordercolor="#666666"
     borderopacity="1.0"
     inkscape:pageopacity="0.0"
     inkscape:pageshadow="2"
     inkscape:zoom="1.1961507"
     inkscape:cx="172.26151"
     inkscape:cy="201.87839"
     inkscape:document-units="px"
     inkscape:current-layer="layer1"
     showgrid="false"
     inkscape:window-width="1280"
     inkscape:window-height="949"
     inkscape:window-x="-9"
     inkscape:window-y="-9"
     inkscape:window-maximized="1" />
  <metadata
     id="metadata7">
    <rdf:RDF>
      <cc:Work
         rdf:about="">
        <dc:format>image/svg+xml</dc:format>
        <dc:type
           rdf:resource="http://purl.org/dc/dcmitype/StillImage" />
        <dc:title></dc:title>
      </cc:Work>
    </rdf:RDF>
  </metadata>
  <g
     inkscape:label="Layer 1"
     inkscape:groupmode="layer"
     id="layer1"
     transform="translate(-206.15129,-216.43874)">
    <g
       id="g4237">
      <path
         transform="translate(206.15129,216.43874)"
         id="path4180"
         d="M 64.875 69.15625 C 45.346204 69.132004 29.926774 69.306636 28.375 69.75 C 24.236937 70.932304 20.6875 75.0625 20.6875 75.0625 C 20.6875 75.0625 22.473946 91.023383 23.65625 96.34375 C 24.838553 101.66411 31.934902 212.22388 31.34375 220.5 C 30.752598 228.77613 33.682304 326.89838 32.5 332.21875 C 31.39159 337.2066 30.290472 342.7115 30.15625 342.40625 C 30.123452 342.79038 28.391374 363.00968 29.5625 365.9375 C 30.744804 368.89326 98.137702 380.11981 129.46875 378.9375 C 160.79981 377.7552 224.04684 370.66672 227.59375 365.9375 C 231.14066 361.20829 224.04165 336.95576 226.40625 334 C 228.77086 331.04424 232.90357 329.27346 239.40625 327.5 C 245.90892 325.72655 273.12493 314.50787 280.21875 309.1875 C 287.31257 303.86714 303.26559 276.07564 306.8125 264.84375 C 310.35941 253.61186 319.22135 227.57824 319.8125 216.9375 C 320.40365 206.29677 320.39586 164.92978 318.03125 156.0625 C 315.66665 147.19522 305.62507 127.70316 298.53125 124.15625 C 291.43743 120.60934 240 117.0625 240 117.0625 C 240 117.0625 236.46875 114.67192 236.46875 111.125 C 236.46875 107.57809 167.30485 72.710956 151.34375 70.9375 C 141.36806 69.82909 97.422994 69.196661 64.875 69.15625 z M 238.8125 140.6875 C 238.22135 140.6875 283.74993 141.88799 290.84375 144.84375 C 297.93758 147.7995 297.34635 166.70302 297.9375 177.34375 C 298.52865 187.98449 297.34375 215.75772 297.34375 224.625 C 297.34375 233.49228 280.19537 272.52857 274.875 279.03125 C 269.55463 285.53392 262.47662 290.83848 257.15625 296.75 C 251.83589 302.66152 233.51047 301.4948 228.78125 300.3125 C 224.05204 299.13019 225.21615 288.47142 224.625 281.96875 C 224.03385 275.46607 228.78385 173.78652 229.375 167.875 C 229.96615 161.96348 230.53638 147.78132 238.8125 140.6875 z "
         style="fill:url(#linearGradient4213);stroke:#000000;stroke-width:1px;stroke-linecap:butt;stroke-linejoin:miter;stroke-opacity:1;fill-opacity:1" />
      <path
         transform="translate(206.15129,216.43874)"
         id="path4189"
         d="m 31.331053,128.27997 c 0,0 5.320367,-27.19299 11.823039,-30.7399 6.502671,-3.546912 41.971787,-6.502671 49.065611,-4.729215 7.093823,1.773455 24.828377,15.369945 28.966447,20.099165 4.13806,4.72922 11.82304,34.87796 13.59649,43.15409 1.77346,8.27613 4.13807,40.19833 5.32037,43.15409 1.1823,2.95576 8.86728,18.91687 17.14341,18.91687 8.27612,0 26.01068,-15.96111 29.55759,-22.46378 3.54691,-6.50267 4.13807,-13.59649 14.7788,-26.60184 10.64074,-13.00534 8.27613,-37.83372 12.41419,-43.15409 4.13807,-5.32036 1.18231,-8.86728 5.91152,-5.91152 4.72922,2.95576 7.09382,7.68498 10.64074,3.54692 3.54691,-4.13807 -15.36995,-34.286817 -15.36995,-34.286817 L 37.833724,73.893992 23.646078,85.125879 c 0,0 5.911519,7.093824 6.502671,10.640735 0.591152,3.546912 1.773456,33.104506 1.182304,32.513356 z"
         style="fill:url(#linearGradient4235);stroke:none;stroke-width:1px;stroke-linecap:butt;stroke-linejoin:miter;stroke-opacity:1;fill-opacity:1" />
      <path
         transform="translate(206.15129,216.43874)"
         id="path4182"
         d="m 23.646078,103.45159 c 0,0 2.364607,-17.143407 4.729215,-18.916863 2.364608,-1.773455 62.070954,-7.093823 66.800169,-6.502671 4.729216,0.591152 19.508018,8.276127 30.739898,8.276127 11.23189,0 16.55226,2.364608 20.69032,4.729216 4.13806,2.364607 8.86728,10.049581 13.00534,11.231891 4.13807,1.1823 13.5965,7.09382 12.41419,11.23188 -1.1823,4.13807 -1.77345,21.87262 -1.1823,25.41954 0.59115,3.54691 2.95576,10.04958 2.95576,10.04958 0,0 0,4.72921 2.95576,5.91152 2.95576,1.1823 8.86728,1.1823 8.86728,-3.54691 0,-4.72922 -2.95576,-5.91152 -4.13806,-11.82304 -1.18231,-5.91152 -2.95576,-9.45843 1.1823,-17.73456 4.13806,-8.27613 4.13806,-10.64074 8.27613,-13.00534 4.13806,-2.36461 4.72921,-6.50267 7.68497,-1.18231 2.95576,5.32037 -0.59115,7.68498 5.32037,6.50267 5.91152,-1.1823 4.13806,-7.09382 11.23189,-5.91152 7.09382,1.18231 5.91152,1.77346 7.68497,7.09383 1.77346,5.32037 0,11.23189 5.91152,6.50267 5.91152,-4.72922 8.86728,-10.04958 11.82304,-15.9611 2.95576,-5.911522 5.32037,-34.877967 -1.1823,-44.92755 -6.50268,-10.049583 -49.06562,-33.695661 -59.1152,-34.286813 -10.04958,-0.591152 -81.578966,-7.684975 -89.263941,-5.320367 -7.684975,2.364608 -30.148749,4.138063 -35.469117,7.093823 -5.320367,2.95576 -5.320367,9.458431 -9.458431,10.049583 -4.138063,0.591152 -10.640735,0 -12.41419,4.729216 -1.773456,4.729215 0.591152,1.773455 -6.502672,6.502671 -7.093823,4.729215 -11.231887,1.182304 -11.823039,9.458431 -0.591152,8.276127 4.138064,7.684975 -1.182303,10.640735 -5.3203679,2.95576 -6.5026718,2.95576 -4.138064,10.049583 2.364608,7.093823 10.049583,24.828378 10.049583,24.828378 l 3.546912,-1.1823 z"
         style="fill:url(#radialGradient4221);stroke:#000000;stroke-width:1px;stroke-linecap:butt;stroke-linejoin:miter;stroke-opacity:1;fill-opacity:1" />
      <path
         transform="translate(206.15129,216.43874)"
         id="path4184"
         d="m 26.601837,95.175462 2.364608,18.325708 c 0,0 10.640735,162.56679 9.458431,173.20752 -1.182304,10.64074 -4.729215,39.01603 -1.182304,43.74524 3.546912,4.72922 3.546912,9.45844 5.91152,10.04959 2.364607,0.59115 21.281469,7.09382 35.469116,6.50267 14.187647,-0.59115 87.490492,0 99.313522,-1.77346 11.82304,-1.77345 27.19299,-4.13806 34.28682,-7.09382 7.09382,-2.95576 7.68497,-4.72922 10.04958,-1.77346 2.36461,2.95576 5.91152,12.41419 3.54691,14.18765 -2.36461,1.77346 -28.37529,13.00534 -38.42488,11.23189 -10.04958,-1.77346 -58.52404,-4.72922 -73.89399,-4.72922 -15.369948,0 -34.28681,2.95576 -46.701001,0 -12.414191,-2.95576 -23.646077,-2.36461 -26.601837,-4.13806 -2.95576,-1.77346 -8.276127,-10.04958 -7.684975,-12.41419 0.591152,-2.36461 2.364607,-11.82304 2.364607,-11.82304 0,0 -1.182303,-73.89399 -1.182303,-77.44091 0,-3.54691 -2.95576,-77.4409 -2.95576,-77.4409 l -5.320368,-71.52938 1.182304,-7.093828 z"
         style="fill:#ffffff;stroke:#000000;stroke-width:1px;stroke-linecap:butt;stroke-linejoin:miter;stroke-opacity:1" />
      <path
         transform="translate(206.15129,216.43874)"
         id="path4191"
         d="m 222.27313,125.32421 c 0,0 0,34.87797 0.59115,46.701 0.59115,11.82304 -2.36461,78.03206 -4.13806,85.71704 -1.77346,7.68497 -1.18231,11.82303 0,18.32571 1.1823,6.50267 0,8.27612 0,8.27612 0,0 3.54691,-21.87262 4.13806,-27.19299 0.59115,-5.32036 3.54691,-80.39666 4.13806,-85.12588 0.59116,-4.72921 4.72922,-20.69031 5.91152,-26.60183 1.18231,-5.91152 2.95576,-8.86728 0,-13.00535 -2.95576,-4.13806 -1.1823,-2.3646 -4.72921,-4.72921 -3.54691,-2.36461 -5.91152,0 -5.91152,-2.36461 z"
         style="fill:#803300;stroke:none;stroke-width:1px;stroke-linecap:butt;stroke-linejoin:miter;stroke-opacity:1" />
      <path
         transform="translate(206.15129,216.43874)"
         id="path4193"
         d="m 36.65142,109.95426 c 1.773456,7.68498 4.138064,108.18081 4.729216,115.27463 0.591152,7.09382 3.546911,37.24257 2.364608,46.10985 -1.182304,8.86728 -1.773456,10.64074 -2.95576,13.59649 -1.182304,2.95576 -1.773456,-11.23188 -1.773456,-11.23188 0,0 -7.684975,-103.45159 -6.502671,-107.58965 1.182304,-4.13807 -2.364608,-40.19834 -0.591152,-44.92755 1.773456,-4.72922 4.138063,-12.41419 4.729215,-11.23189 z"
         style="fill:#803300;stroke:none;stroke-width:1px;stroke-linecap:butt;stroke-linejoin:miter;stroke-opacity:1" />
      <path
         transform="translate(206.15129,216.43874)"
         id="path4195"
         d="m 44.927547,316.85744 c 2.95576,7.09382 4.138064,11.82304 10.049583,12.41419 5.91152,0.59115 54.38598,3.54691 66.20902,3.54691 11.82304,0 69.75593,0 78.03205,-5.91152 8.27613,-5.91152 11.23189,-3.54691 14.18765,-14.18764 2.95576,-10.64074 4.72922,-23.64608 2.36461,-27.78415 -2.36461,-4.13806 5.91152,10.04959 5.91152,18.32572 0,8.27612 -4.13807,13.59649 -9.45843,21.87262 -5.32037,8.27612 -13.00535,12.41419 -24.23723,12.41419 -11.23189,0 -24.23723,1.77345 -32.51336,0.59115 -8.27613,-1.1823 -14.18765,-2.36461 -25.41953,0.59115 -11.23189,2.95576 -53.203678,-0.59115 -64.435565,-2.36461 -11.231887,-1.77345 -20.099166,1.77346 -23.054925,-5.91152 -2.95576,-7.68497 -2.364608,-17.1434 0,-23.05492 2.364607,-5.91152 5.911519,-15.36995 5.911519,-15.36995 l -3.546912,24.82838 z"
         style="fill:#000000;stroke:none;stroke-width:1px;stroke-linecap:butt;stroke-linejoin:miter;stroke-opacity:1;fill-opacity:0.43820226" />
      <path
         transform="translate(206.15129,216.43874)"
         id="path4197"
         d="m 44.927547,106.9985 c 1.773456,7.68498 9.458431,33.69566 8.86728,42.56294 -0.591152,8.86728 -1.182304,36.65142 -2.364608,49.65676 -1.182304,13.00535 -4.729216,31.92221 -2.95576,49.06561 1.773456,17.14341 4.138064,23.05493 1.182304,29.5576 -2.95576,6.50267 -7.093823,15.9611 -7.093823,15.9611 0,0 16.552254,-21.87262 17.734558,-27.19299 1.182304,-5.32036 -4.138064,-30.7399 -2.95576,-43.74524 1.182304,-13.00534 2.95576,-42.56294 5.320368,-56.75058 2.364607,-14.18765 3.546911,-26.60184 0.591152,-39.60718 -2.95576,-13.00535 -17.734559,-21.28147 -18.325711,-19.50802 z"
         style="fill:#ffffff;stroke:none;stroke-width:1px;stroke-linecap:butt;stroke-linejoin:miter;stroke-opacity:1;fill-opacity:0.71535581" />
      <path
         sodipodi:nodetypes="ccsssssccssssscc"
         style="fill:#ececec;stroke:none;stroke-width:1px;stroke-linecap:butt;stroke-linejoin:miter;stroke-opacity:1;fill-opacity:1"
         d="m 236.81503,113.4389 c 0,-3.54692 2.58862,27.2486 1.99747,27.2486 -0.0368,-0.92399 45.67662,0.8309 52.77044,3.78666 7.09383,2.95575 6.5026,22.59845 7.09375,33.23918 0.59115,10.64074 -0.59375,37.85958 -0.59375,46.72686 0,8.86728 -16.96358,47.71878 -22.28395,54.22146 -5.32037,6.50267 -12.95278,12.54641 -18.27315,18.45793 -5.32036,5.91152 -24.56976,4.9296 -29.29898,3.7473 -4.72922,-1.1823 4.49192,27.85217 10.99459,26.07872 6.50267,-1.77345 33.71868,-13.17693 40.8125,-18.4973 7.09382,-5.32036 22.49245,-32.74226 26.03936,-43.97415 3.54691,-11.23189 12.59365,-36.89592 13.1848,-47.53666 0.59115,-10.64073 0.76816,-52.00772 -1.59645,-60.875 -2.3646,-8.86728 -12.77578,-28.17454 -19.8696,-31.72145 -7.09382,-3.54691 -57.3487,-6.6874 -57.3487,-6.6874 0,0 -3.62833,-2.14571 -3.62833,-4.21475 z"
         id="path4223"
         transform="translate(206.15129,216.43874)" />
      <path
         transform="translate(206.15129,216.43874)"
         id="path4225"
         d="m 236.1652,113.79675 c 0,0 2.06903,5.17258 2.5124,7.68497 0.44336,2.5124 1.33009,10.78853 1.03451,13.44871 -0.29557,2.66018 0.59115,5.32037 -0.44336,5.46816 -1.03452,0.14778 -1.18231,-2.21682 -1.18231,-3.99028 0,-1.77346 -0.29557,-9.16286 -0.88672,-11.67525 -0.59116,-2.5124 -0.73894,-4.28585 -1.18231,-6.05931 -0.44336,-1.77345 0.59115,-5.17258 0.14779,-4.877 z"
         style="fill:#000000;stroke:#000000;stroke-width:1px;stroke-linecap:butt;stroke-linejoin:miter;stroke-opacity:1" />
    </g>
  </g>
</svg>
